<?xml version="1.0" encoding="UTF-8" standalone="no"?><!DOCTYPE svg PUBLIC "-//W3C//DTD SVG 1.1//EN" "http://www.w3.org/Graphics/SVG/1.1/DTD/svg11.dtd"><svg width="100%" height="100%" viewBox="0 0 460 230" version="1.1" xmlns="http://www.w3.org/2000/svg" xmlns:xlink="http://www.w3.org/1999/xlink" xml:space="preserve" xmlns:serif="http://www.serif.com/" style="fill-rule:evenodd;clip-rule:evenodd;stroke-linejoin:round;stroke-miterlimit:1.41421;"><path id="oa-logo-gradient" d="M118.799,0.062c61.715,2.007 111.201,52.739 111.201,114.938c0,63.47 -51.53,115 -115,115c-63.47,0 -115,-51.53 -115,-115c0,-62.199 49.486,-112.931 111.201,-114.938l0,65.105l7.598,0l0,-65.105Zm341.201,229.938l-111.235,0l0,-65.167l-7.598,0l0,65.167l-111.167,0l115,-230l115,230Zm-345,-230c0,0 0,0 0,0Z" style="fill:url(#_Linear1);"/><defs><linearGradient id="_Linear1" x1="0" y1="0" x2="1" y2="0" gradientUnits="userSpaceOnUse" gradientTransform="matrix(460,0,0,230,1.42109e-14,115)"><stop offset="0" style="stop-color:#6400ae;stop-opacity:1"/><stop offset="1" style="stop-color:#f88;stop-opacity:1"/></linearGradient></defs></svg>